<svg xmlns="http://www.w3.org/2000/svg" viewBox="0 0 384 160" width="384" height="160">
  <!-- Chip Text -->
  <g transform="translate(0, 0)" fill="#0e2841">
    <!-- C -->
    <path d="M 51.1333 19.0000 c 8.7067 -0.0000 17.3333 2.7733 25.8667 8.3200 V 48.2667 c -9.4133 -7.6933 -18.3600 -11.5333 -26.8533 -11.5333 -9.3200 -0.0000 -17.1867 3.7600 -23.6000 11.2533 -6.4400 7.4533 -9.6667 16.6000 -9.6667 27.4267 0.0000 10.7067 3.2133 19.7200 9.6533 27.0267 6.4267 7.3067 14.3200 10.9600 23.6800 10.9600 4.8400 -0.0000 8.9467 -0.8800 12.3200 -2.6267 1.8800 -0.8800 3.8533 -2.0667 5.9067 -3.5867 2.0667 -1.5200 4.9200 -3.4533 8.5600 -5.7867 v 21.3067 c -8.7733 5.5333 -17.7733 8.2933 -26.9733 8.2933 -13.8400 -0.0000 -25.7600 -5.9333 -35.7733 -17.8000 -9.5067 -9.7467 -14.2533 -22.2933 -14.2533 -37.6533 0.0000 -13.7467 4.0667 -26.0000 12.2133 -36.7467 10.0400 -13.2000 23.0000 -19.8000 38.9200 -19.8000 z" />
    <!-- h -->
    <path d="M 84.0000 19.0000 h 14.5200 v 43.2800 c 3.3333 -3.9200 7.7733 -5.8800 13.3333 -5.8800 6.3333 -0.0000 11.4400 2.0933 15.3200 6.2667 3.2133 3.5467 4.8267 9.1467 4.8267 16.7867 v 33.5467 h -14.5200 v -32.4000 c 0.0000 -3.9733 -0.6667 -6.8000 -2.0000 -8.4800 -1.3333 -1.6667 -3.4800 -2.5067 -6.4667 -2.5067 -3.8800 -0.0000 -6.5200 1.0533 -7.9200 3.1733 -1.7067 2.6933 -2.5733 7.2000 -2.5733 13.5200 v 26.6933 h -14.5200 z" />
    <!-- i dot -->
    <path d="M 137.0000 43.0000 c 0.0000 -4.9733 4.0267 -9.0000 9.0000 -9.0000 4.9733 -0.0000 9.0000 4.0267 9.0000 9.0000 0.0000 4.9733 -4.0267 9.0000 -9.0000 9.0000 -4.9733 -0.0000 -9.0000 -4.0267 -9.0000 -9.0000 z" />
    <!-- i stem -->
    <path d="M 140.0000 113.0000 H 153.0000 v -55.0000 h -13.0000 z" />
    <!-- p -->
    <path d="M 188.2000 69.3067 c -4.2267 -0.0000 -7.6400 1.4533 -10.2667 4.3467 -2.6267 2.9067 -3.9467 6.7867 -3.9467 11.6400 0.0000 4.7467 0.8133 8.5067 2.4533 11.2667 3.5867 3.1733 7.4933 4.7600 11.7067 4.7600 3.9733 -0.0000 7.2133 -1.4400 9.7333 -4.3200 2.7600 -3.0800 4.1333 -6.8933 4.1333 -11.4400 0.0000 -4.8267 -1.3067 -8.7467 -3.9333 -11.7600 -2.6267 -3.0000 -5.9200 -4.4933 -9.8800 -4.4933 z m 2.0400 -13.3067 c 7.7733 -0.0000 14.2533 3.1333 19.4667 9.4000 4.8667 4.9733 7.2933 11.6800 7.2933 20.1067 0.0000 8.2533 -2.5200 15.1600 -7.5467 20.7200 -5.0133 5.5333 -11.3467 8.2933 -18.9867 8.2933 -6.6267 -0.0000 -11.8667 -2.5067 -15.7600 -7.5067 V 142.0000 h -14.7067 v -84.5200 h 14.7067 v 5.8000 c 3.8133 -4.8533 9.0000 -7.2800 15.5333 -7.2800 z" />
  </g>

  <!-- Chip Graphic with IQ -->
  <g transform="translate(224, 0)">
    <!-- Pins (Aligned to Grid, Shifted Right by 9px to Center) -->
    <g fill="#0e2841">
        <!-- Top Row -->
        <circle cx="38" cy="9" r="9" />
        <circle cx="66" cy="9" r="9" />
        <circle cx="94" cy="9" r="9" />
        <circle cx="122" cy="9" r="9" />
        
        <!-- Bottom Row -->
        <circle cx="38" cy="151" r="9" />
        <circle cx="66" cy="151" r="9" />
        <circle cx="94" cy="151" r="9" />
        <circle cx="122" cy="151" r="9" />

        <!-- Left Row -->
        <circle cx="9" cy="38" r="9" />
        <circle cx="9" cy="66" r="9" />
        <circle cx="9" cy="94" r="9" />
        <circle cx="9" cy="122" r="9" />

        <!-- Right Row -->
        <circle cx="151" cy="38" r="9" />
        <circle cx="151" cy="66" r="9" />
        <circle cx="151" cy="94" r="9" />
        <circle cx="151" cy="122" r="9" />
    </g>

    <!-- Body (Centered 136x136) -->
    <rect x="12" y="12" width="136" height="136" rx="29" fill="#4e95d9" stroke="#0e2841" stroke-width="14" />

    <!-- Inner Details -->
    <g fill="#dceaf7">
        <!-- I -->
        <rect x="35" y="47" width="14" height="66" />
        
        <!-- Q Tail -->
        <polygon points="130,113 102,86 86,86 114,113" />
        
        <!-- Q Ring -->
        <path d="M 93,80 m -34,0 a 34,34 0 1,0 68,0 a 34,34 0 1,0 -68,0 M 93,80 m -21,0 a 21,21 0 1,1 42,0 a 21,21 0 1,1 -42,0" fill-rule="evenodd" />
    </g>
  </g>
</svg>
