<svg xmlns="http://www.w3.org/2000/svg" viewBox="0 0 160 160" width="160" height="160">
  <!-- Pins (Aligned to Grid, Shifted Right by 9px to Center) -->
  <g fill="#0e2841">
    <!-- Top Row -->
    <circle cx="38" cy="9" r="9" />
    <circle cx="66" cy="9" r="9" />
    <circle cx="94" cy="9" r="9" />
    <circle cx="122" cy="9" r="9" />
    
    <!-- Bottom Row -->
    <circle cx="38" cy="151" r="9" />
    <circle cx="66" cy="151" r="9" />
    <circle cx="94" cy="151" r="9" />
    <circle cx="122" cy="151" r="9" />

    <!-- Left Row -->
    <circle cx="9" cy="38" r="9" />
    <circle cx="9" cy="66" r="9" />
    <circle cx="9" cy="94" r="9" />
    <circle cx="9" cy="122" r="9" />

    <!-- Right Row -->
    <circle cx="151" cy="38" r="9" />
    <circle cx="151" cy="66" r="9" />
    <circle cx="151" cy="94" r="9" />
    <circle cx="151" cy="122" r="9" />
  </g>

  <!-- Body (Centered 136x136) -->
  <rect x="12" y="12" width="136" height="136" rx="29" fill="#4e95d9" stroke="#0e2841" stroke-width="14" />

  <!-- Inner Details -->
  <g fill="#dceaf7">
    <!-- I -->
    <rect x="35" y="47" width="14" height="66" />
    
    <!-- Q Tail -->
    <polygon points="130,113 102,86 86,86 114,113" />
    
    <!-- Q Ring -->
    <path d="M 93,80 m -34,0 a 34,34 0 1,0 68,0 a 34,34 0 1,0 -68,0 M 93,80 m -21,0 a 21,21 0 1,1 42,0 a 21,21 0 1,1 -42,0" fill-rule="evenodd" />
  </g>
</svg>
